<svg width="491" height="164" viewBox="0 0 491 164" fill="none" xmlns="http://www.w3.org/2000/svg">
<path d="M30.1804 64.316C19.1442 69.6656 11.8329 77.4622 6.01761 88.2606C-7.47541 113.335 2.28289 140.39 29.6751 140.39C57.0673 140.39 72.1254 122.439 77.0491 117.327C79.0998 115.098 81.0715 112.78 82.9637 110.412C83.7364 109.441 85.2323 110.432 84.6478 111.532C84.0137 112.73 83.34 113.919 82.6367 115.078C78.347 122.092 79.7438 131.306 86.2922 136.279C89.2642 138.537 93.3359 140.043 98.9035 140.043C116.369 140.043 130.754 126.412 136.797 119.675C137.52 118.853 138.224 118.03 138.927 117.188C139.541 116.435 141.82 113.602 142.751 112.354C143.494 111.363 145.02 112.314 144.465 113.424C144.078 114.206 143.672 114.989 143.256 115.752C140.819 120.21 140.69 125.599 142.87 130.196C145.525 135.803 150.419 140.4 159.256 140.4C166.101 140.4 177.147 136.972 187.431 127.472C208.373 108.104 210.167 91.8964 208.76 87.686C205.183 76.9768 192.037 83.2478 179.505 92.4809C178.673 93.0951 177.563 92.2134 177.979 91.2623C181.595 83.0298 189.115 63.028 182.012 52.5665C173.63 40.2425 156.541 47.7815 139.63 60.5513C138.848 61.1458 137.768 60.373 138.075 59.4418C140.74 51.2786 146.575 29.5135 136.906 19.8445C114.814 -2.24764 67.925 57.4506 54.5608 75.58C53.9168 76.4617 52.5301 75.8276 52.7678 74.7577C53.5901 71.0327 53.4811 68.3084 53.0155 66.9016C50.4596 59.2734 38.9281 60.0858 30.2002 64.3259L30.1804 64.316Z" fill="black"/>
<path d="M68.9551 42.233C61.9015 52.3082 49.5775 57.123 41.4242 52.9819C33.2808 48.8409 32.3991 37.3193 39.4528 27.2342C46.5064 17.1591 58.8304 12.3443 66.9837 16.4854C75.1271 20.6264 76.0088 32.1479 68.9551 42.233Z" fill="black"/>
<path d="M446.194 90.756V124.457H435V38.2393H446.194V73.8459C450.362 67.7725 457.031 65.5099 463.581 65.5099C477.275 65.5099 484.063 75.394 484.063 88.1361V124.457H472.869V90.0415C472.869 82.0628 469.535 75.6321 459.532 75.6321C450.957 75.6321 446.432 82.3009 446.194 90.756Z" fill="black"/>
<path d="M398.819 75.7511C389.768 75.7511 381.432 82.4199 381.432 95.7575C381.432 108.857 389.649 115.883 398.938 115.883C409.656 115.883 413.585 108.619 414.895 104.093L424.779 108.381C422.04 116.597 413.824 126.243 398.938 126.243C382.266 126.243 370 113.144 370 95.7575C370 77.8946 382.504 65.3906 398.819 65.3906C414.062 65.3906 421.921 74.9175 424.303 83.6107L414.181 87.8978C412.752 82.3008 408.584 75.7511 398.819 75.7511Z" fill="black"/>
<path d="M315.448 89.9223H346.767C346.529 81.7054 341.17 75.2747 331.048 75.2747C321.64 75.2747 315.924 82.539 315.448 89.9223ZM348.434 104.808L358.08 108.142C354.865 118.265 345.695 126.243 332.358 126.243C316.996 126.243 303.539 115.049 303.539 95.6384C303.539 77.6564 316.519 65.3906 330.929 65.3906C348.553 65.3906 358.438 77.5374 358.438 95.4002C358.438 96.8292 358.318 98.2583 358.199 98.9728H315.09C315.329 109.214 322.712 116.359 332.358 116.359C341.646 116.359 346.291 111.239 348.434 104.808Z" fill="black"/>
<path d="M310.06 50.8621H281.837V124.457H270.167V50.8621H241.943V40.0253H310.06V50.8621Z" fill="black"/>
</svg>
